<?xml version="1.0" encoding="UTF-8"?>
<!--Generator: Apple Native CoreSVG 326-->
<!DOCTYPE svg
PUBLIC "-//W3C//DTD SVG 1.1//EN"
       "http://www.w3.org/Graphics/SVG/1.1/DTD/svg11.dtd">
<svg version="1.1" xmlns="http://www.w3.org/2000/svg" xmlns:xlink="http://www.w3.org/1999/xlink" viewBox="0 0 85.232 85.0562">
 <g>
  <rect height="85.0562" opacity="0" width="85.232" x="0" y="0"/>
  <path d="M48.9587 3.37281L55.0525 9.40797C55.6677 9.99391 56.2537 10.2283 57.0447 10.2283L65.5994 10.2283C71.9568 10.2283 74.7986 13.0994 74.7986 19.3982L74.7986 27.9529C74.7986 28.7732 75.0037 29.3591 75.5896 29.9451L81.6248 36.0388C86.1072 40.492 86.1365 44.5056 81.6248 48.988L75.5896 55.0525C75.0037 55.6677 74.7986 56.2537 74.7986 57.074L74.7986 65.5994C74.7986 71.9568 71.9275 74.7986 65.5994 74.7986L57.0447 74.7986C56.2537 74.7986 55.6677 75.0037 55.0525 75.6189L48.9587 81.6248C44.5056 86.1072 40.492 86.1365 36.0388 81.6248L29.9451 75.6189C29.3591 75.0037 28.7732 74.7986 27.9529 74.7986L19.3982 74.7986C13.0701 74.7986 10.2283 71.9275 10.2283 65.5994L10.2283 57.074C10.2283 56.2537 9.99391 55.6677 9.40797 55.0525L3.37281 48.988C-1.10961 44.5056-1.13891 40.492 3.37281 36.0388L9.40797 29.9451C9.99391 29.3591 10.2283 28.7732 10.2283 27.9529L10.2283 19.3982C10.2283 13.0408 13.0701 10.2283 19.3982 10.2283L27.9529 10.2283C28.7732 10.2283 29.3591 9.99391 29.9451 9.40797L36.0095 3.37281C40.492-1.10961 44.5056-1.13891 48.9587 3.37281ZM55.1404 27.4255L38.2068 54.3494L29.7693 43.8318C29.0076 42.7771 28.2752 42.4548 27.3377 42.4548C25.8728 42.4548 24.7595 43.656 24.7595 45.1209C24.7595 45.8533 25.0525 46.5857 25.5212 47.2302L35.5115 59.3005C36.3611 60.4138 37.24 60.8533 38.3533 60.8533C39.4373 60.8533 40.3455 60.3259 41.0193 59.3005L59.3884 30.531C59.7693 29.8865 60.1795 29.1248 60.1795 28.4216C60.1795 26.9275 58.8611 25.9607 57.4548 25.9607C56.5759 25.9607 55.7556 26.4587 55.1404 27.4255Z" fill="black" fill-opacity="0.85"/>
 </g>
</svg>
