<?xml version="1.0" encoding="UTF-8"?>
<!--Generator: Apple Native CoreSVG 326-->
<!DOCTYPE svg
PUBLIC "-//W3C//DTD SVG 1.1//EN"
       "http://www.w3.org/Graphics/SVG/1.1/DTD/svg11.dtd">
<svg version="1.1" xmlns="http://www.w3.org/2000/svg" xmlns:xlink="http://www.w3.org/1999/xlink" viewBox="0 0 85.2173 85.2905">
 <g>
  <rect height="85.2905" opacity="0" width="85.2173" x="0" y="0"/>
  <path d="M19.4055 74.7986L27.9309 74.7986C28.7512 74.7986 29.3372 75.0037 29.9524 75.5896L36.0169 81.6248C40.4993 86.1072 44.4837 86.0779 48.9661 81.6248L55.0305 75.5896C55.6458 75.0037 56.2317 74.7986 57.052 74.7986L65.5774 74.7986C71.9055 74.7986 74.7766 71.9568 74.7766 65.5994L74.7766 57.0447C74.7766 56.2537 75.011 55.6677 75.5969 55.0525L81.6321 48.9587C86.1145 44.5056 86.0852 40.5212 81.6321 36.0388L75.5969 29.9451C75.011 29.3591 74.7766 28.7732 74.7766 27.9529L74.7766 19.3982C74.7766 13.0994 71.9348 10.2283 65.5774 10.2283L57.052 10.2283C56.2317 10.2283 55.6458 9.99391 55.0305 9.40797L48.9661 3.37281C44.4837-1.13891 40.4993-1.10961 36.0169 3.37281L29.9524 9.40797C29.3665 9.99391 28.7512 10.2283 27.9309 10.2283L19.4055 10.2283C13.0481 10.2283 10.2063 13.0408 10.2063 19.3982L10.2063 27.9529C10.2063 28.7732 9.97193 29.3591 9.386 29.9451L3.35084 36.0388C-1.13158 40.5212-1.10229 44.5056 3.35084 48.9587L9.386 55.0525C9.97193 55.6677 10.2063 56.2537 10.2063 57.0447L10.2063 65.5994C10.2063 71.9275 13.0481 74.7986 19.4055 74.7986ZM19.4055 69.6423C15.9778 69.6423 15.3333 69.0271 15.3333 65.5994L15.3333 55.3162C15.3333 54.2029 14.9817 53.3533 14.1907 52.5623L6.95435 45.3552C4.55201 42.9236 4.55201 42.1033 6.95435 39.6423L14.1907 32.4353C14.9817 31.6443 15.3333 30.7947 15.3333 29.6814L15.3333 19.3982C15.3333 15.9412 15.9192 15.3552 19.4055 15.3552L29.6887 15.3552C30.802 15.3552 31.6223 15.033 32.4133 14.2127L39.6204 6.97633C42.0813 4.54469 42.9016 4.54469 45.3626 6.97633L52.5696 14.2127C53.3606 15.033 54.2102 15.3552 55.3235 15.3552L65.5774 15.3552C69.0344 15.3552 69.6497 15.9705 69.6497 19.3982L69.6497 29.6814C69.6497 30.7947 70.0012 31.6443 70.7922 32.4353L78.0286 39.6423C80.4602 42.1033 80.4602 42.9236 78.0286 45.3552L70.7922 52.5623C70.0012 53.3533 69.6497 54.2029 69.6497 55.3162L69.6497 65.5994C69.6497 69.0271 69.0344 69.6423 65.5774 69.6423L55.3235 69.6423C54.2102 69.6423 53.3606 69.9646 52.5696 70.7849L45.3626 78.0212C42.9016 80.4529 42.0813 80.4529 39.6204 78.0212L32.4133 70.7849C31.6223 69.9646 30.802 69.6423 29.6887 69.6423Z" fill="black" fill-opacity="0.85"/>
  <path d="M38.4192 60.4431C39.4739 60.4431 40.3528 59.9158 40.9973 58.949L58.9856 30.7947C59.3372 30.1795 59.7473 29.447 59.7473 28.7439C59.7473 27.3084 58.4583 26.3709 57.1106 26.3709C56.261 26.3709 55.4407 26.8689 54.8547 27.8064L38.2727 54.1443L30.011 43.8318C29.2786 42.8064 28.5462 42.5134 27.6379 42.5134C26.2317 42.5134 25.1477 43.656 25.1477 45.0916C25.1477 45.7947 25.4407 46.4978 25.8801 47.113L35.6653 58.949C36.4856 60.0037 37.3352 60.4431 38.4192 60.4431Z" fill="black" fill-opacity="0.85"/>
 </g>
</svg>
